<?xml version="1.0" encoding="UTF-8" standalone="no"?>
<!-- Created with Inkscape (http://www.inkscape.org/) -->

<svg
   width="800px"
   height="800px"
   viewBox="0 0 800 800"
   version="1.1"
   id="SVGRoot"
   sodipodi:docname="iconShadow.svg"
   inkscape:version="1.2.1 (9c6d41e410, 2022-07-14)"
   xmlns:inkscape="http://www.inkscape.org/namespaces/inkscape"
   xmlns:sodipodi="http://sodipodi.sourceforge.net/DTD/sodipodi-0.dtd"
   xmlns="http://www.w3.org/2000/svg"
   xmlns:svg="http://www.w3.org/2000/svg">
  <sodipodi:namedview
     id="namedview944"
     pagecolor="#ffffff"
     bordercolor="#ffffff"
     borderopacity="0"
     inkscape:showpageshadow="2"
     inkscape:pageopacity="0.0"
     inkscape:pagecheckerboard="0"
     inkscape:deskcolor="#d1d1d1"
     inkscape:document-units="px"
     showgrid="true"
     inkscape:zoom="1"
     inkscape:cx="315"
     inkscape:cy="428"
     inkscape:window-width="1858"
     inkscape:window-height="1057"
     inkscape:window-x="-8"
     inkscape:window-y="-8"
     inkscape:window-maximized="1"
     inkscape:current-layer="layer4"
     inkscape:lockguides="true">
    <inkscape:grid
       type="xygrid"
       id="grid954"
       spacingx="5"
       spacingy="5" />
  </sodipodi:namedview>
  <defs
     id="defs939">
    <linearGradient
       id="linearGradient3120"
       inkscape:swatch="solid">
      <stop
         style="stop-color:#000000;stop-opacity:1;"
         offset="0"
         id="stop3118" />
    </linearGradient>
  </defs>
  <g
     inkscape:groupmode="layer"
     id="layer4"
     inkscape:label="Layer 2">
    <path
       id="path2628"
       style="fill:#000000;fill-opacity:1;fill-rule:nonzero;stroke:none;stroke-width:2.19917;stroke-opacity:1"
       d="m 528.35547,169.03418 c -3.08257,1.4096 -6.15252,2.82047 -9.49414,4.28906 -22.10364,9.71025 -48.26892,19.37485 -79.49609,28.39648 -16.3441,4.72194 -33.31593,9.14902 -51.24219,13.44336 -21.75331,5.21119 -43.33937,9.84554 -62.96484,13.90625 -68.48452,14.17326 -120.58361,22.92739 -132.7793,23.69922 -1.53447,0.0971 -2.16635,0.0161 -2.39063,-0.14453 0.91863,0.27668 4.03536,4.89198 8.82618,13.29883 4.59817,8.0688 12.56377,22.87774 17.35351,39.21094 2.23565,7.59953 3.94376,16.47751 3.39258,25.82812 -0.50012,8.13252 -3.00489,16.59711 -7.96289,24.07227 -3.77044,5.59317 -8.51568,10.41887 -13.83594,14.69531 -2.415,1.94124 -4.8998,3.73104 -7.38867,5.39062 -10.2676,6.90273 -21.18098,12.18981 -31.23828,16.52149 -21.61471,9.32087 -43.57239,16.08939 -56.83203,19.86523 -11.46771,3.26554 -19.13198,5.09479 -21.86524,5.25391 6.04392,1.68169 36.63714,15.31627 81.57032,38.14844 20.88246,10.60946 47.03466,24.41692 72.44726,40.53125 15.82204,10.01677 32.78775,21.84844 48.01172,36.1582 L 428.40821,356.46777 c -1.87348,-1.76115 -3.82495,-3.4093 -5.63672,-5.25195 -6.90852,-6.92723 -13.65489,-14.94235 -18.58008,-24.04493 -3.2504,-6.00735 -5.65385,-12.39094 -6.85742,-19.17187 -1.24429,-7.52829 -0.70265,-15.14254 1.20703,-22.23828 2.13897,-7.90928 5.7595,-15.15184 9.9707,-21.63477 11.06808,-17.03499 26.16254,-30.58325 40.0293,-41.73437 20.21087,-16.30527 41.75659,-30.15369 58.76172,-40.63867 7.59853,-4.68658 14.50912,-8.83465 21.05273,-12.7168 z m -10.82422,99.36132 -145.9414,175.13282 c 1.87623,1.76356 3.83018,3.41446 5.64453,5.25976 6.90801,6.9266 13.64942,14.94123 18.57422,24.04297 3.25078,6.0077 5.6598,12.39431 6.86328,19.17578 1.24399,7.52816 0.6971,15.13694 -1.21289,22.23242 -2.13917,7.90916 -5.7595,15.15202 -9.97071,21.63477 -11.06855,17.03476 -26.15849,30.58338 -40.02539,41.73437 -20.21106,16.30524 -41.76038,30.15561 -58.76562,40.64063 -7.6003,4.68758 -14.51184,8.83396 -21.05664,12.7168 3.08492,-1.41068 6.15564,-2.81931 9.5,-4.28907 22.10406,-9.71034 48.26667,-19.37496 79.49414,-28.39648 16.3433,-4.72168 33.31703,-9.14925 51.24219,-13.44336 21.7544,-5.21141 43.34432,-9.84539 62.9707,-13.90625 68.48317,-14.17292 120.57836,-22.92537 132.77344,-23.69727 1.53435,-0.097 2.1664,-0.0161 2.39062,0.14454 -0.91918,-0.27747 -4.03646,-4.88994 -8.82617,-13.29493 -4.59778,-8.0682 -12.56431,-22.88083 -17.35352,-39.21289 -2.23558,-7.59965 -3.94371,-16.4813 -3.39257,-25.83203 0.50022,-8.13293 3.00898,-16.59063 7.96679,-24.0664 3.77036,-5.59362 8.5136,-10.42426 13.83399,-14.70118 2.41496,-1.94137 4.90369,-3.73093 7.39258,-5.39062 10.26736,-6.90317 21.18096,-12.1896 31.23828,-16.52149 21.61395,-9.32093 43.56894,-16.08951 56.82812,-19.86523 11.4674,-3.26547 19.13013,-5.09481 21.86328,-5.25391 -6.0437,-1.68154 -36.63882,-15.31514 -81.57031,-38.14648 -20.88202,-10.60924 -47.02915,-24.41515 -72.44141,-40.5293 -15.82474,-10.01858 -32.79343,-21.85476 -48.01953,-36.16797 z"
       sodipodi:insensitive="true" />
  </g>
</svg>
